<?xml version="1.0" encoding="utf-8"?>
<!-- Generator: Adobe Illustrator 16.0.4, SVG Export Plug-In . SVG Version: 6.00 Build 0)  -->
<!DOCTYPE svg PUBLIC "-//W3C//DTD SVG 1.1//EN" "http://www.w3.org/Graphics/SVG/1.1/DTD/svg11.dtd">
<svg version="1.1" id="Layer_1" xmlns="http://www.w3.org/2000/svg" xmlns:xlink="http://www.w3.org/1999/xlink" x="0px" y="0px"
	 width="326.389px" height="108.333px" viewBox="0 0 326.389 108.333" enable-background="new 0 0 326.389 108.333"
	 xml:space="preserve">
<path fill="#00A79D" d="M54.231,73.463c-3.391,1.312-7.399,1.883-11.833,1.883c-4.256,0-5.592,0.084-5.592-1.92V35.464
	c1.918-0.167,6.256-0.167,7.424-0.167c2.015,0,3.991,0.19,5.882,0.575l6.557-7.031c-3.396-1.131-7.092-1.764-10.937-1.887
	c-1.168-0.083-8.427,0-9.845,0c-4.338,0-8.511,1.001-8.511,5.757l0.251,25.448L27.46,78.268c0,2.918,1.836,5.09,4.423,5.256
	c3.671,0.335,7.761,0.252,11.098,0.252c7.07-0.062,13.262-1.225,18.256-3.781L54.231,73.463z"/>
<g>
	<g>
		<g>
			<path fill="#00314D" d="M44.985,66.034c-0.838,0-1.667-0.355-2.252-1.046c-1.055-1.241-0.902-3.104,0.341-4.159
				c0.013-0.012,2.883-2.561,2.551-5.72c-0.328-3.12-3.603-4.894-3.636-4.911c-1.452-0.744-2.017-2.518-1.275-3.97
				c0.744-1.453,2.533-2.023,3.983-1.277c0.25,0.127,6.132,3.208,6.799,9.538c0.662,6.292-4.386,10.656-4.604,10.837
				C46.339,65.801,45.661,66.034,44.985,66.034z"/>
		</g>
		<g>
			<path fill="#00314D" d="M53.413,71.708c-0.966,0-1.927-0.379-2.642-1.137c-1.379-1.458-1.316-3.757,0.143-5.136
				c0.033-0.033,4.887-4.813,4.223-11.141c-0.66-6.275-6.302-9.717-6.358-9.75c-1.734-1.007-2.323-3.232-1.314-4.966
				c1.007-1.734,3.23-2.324,4.967-1.316c0.362,0.211,8.88,5.27,9.934,15.273c1.047,9.956-6.149,16.887-6.457,17.178
				C55.205,71.379,54.307,71.708,53.413,71.708z"/>
		</g>
		<g>
			<path fill="#00314D" d="M62.919,78.022c-1.203,0-2.407-0.477-3.301-1.419c-1.722-1.821-1.645-4.699,0.18-6.421
				c0.056-0.057,7.351-7.219,6.348-16.765c-0.999-9.481-9.516-14.653-9.6-14.703c-2.169-1.26-2.896-4.035-1.636-6.204
				c1.26-2.169,4.051-2.9,6.218-1.64c0.512,0.299,12.562,7.451,14.05,21.597c1.483,14.084-8.705,23.901-9.14,24.313
				C65.162,77.611,64.04,78.022,62.919,78.022z"/>
		</g>
	</g>
</g>
<g>
	<path fill="#00A79D" d="M97.958,74.401c3.097,0,6.026-1.005,8.12-2.261c1.003-0.589,2.008-1.089,3.264-1.089
		c2.008,0,3.849,2.092,3.849,4.353c0,1.591-1.003,2.847-2.509,3.849c-3.099,2.012-7.031,3.351-13.478,3.351
		c-10.376,0-18.58-8.284-18.747-18.413c0-11.717,8.371-21.174,19.25-21.174c9.791,0,16.906,7.698,16.906,15.398
		c0,4.354-0.668,6.528-6.527,6.611c-4.687,0.168-10.378,0.084-20.339,0.168C88.081,70.213,92.269,74.401,97.958,74.401z
		 M87.831,59.334c4.352,0,13.559-0.084,17.075-0.334c0.585-0.084,1.003-0.334,1.003-0.752c0-4.604-3.849-7.785-8.034-7.785
		C92.269,50.464,88.332,54.9,87.831,59.334z"/>
	<path fill="#00A79D" d="M120.303,48.621c-0.084-3.431,1.088-5.357,4.688-5.357c2.844,0,3.849,1.339,4.1,4.102l0.167,2.93
		c1.924-4.603,7.282-7.28,12.472-7.28c9.29,0,14.478,6.11,14.478,16.486c0,3.433-0.083,5.189-0.083,10.799v7.197
		c0,3.349-1.758,4.688-4.938,4.688c-2.428,0-4.353-1.256-4.353-4.02c0-4.77,0.25-10.795,0.25-16.069
		c-0.083-5.69-1.255-11.046-7.616-11.046c-8.705-0.083-10.128,6.444-10.128,14.227l0.083,13.143c0,3.012-2.512,3.934-4.603,3.934
		c-2.593,0-4.604-0.922-4.604-4.018c0-5.021,0.251-10.043,0.167-22.349L120.303,48.621z"/>
	<path fill="#00A79D" d="M161.23,27.028c0.501-3.347,3.347-4.939,6.026-4.939c3.769,0,5.69,2.512,5.69,5.692
		c0,3.851-2.846,5.524-6.36,5.524C163.071,33.305,160.812,30.543,161.23,27.028z M166.754,43.264c2.761,0,4.771,1.005,4.771,5.107
		c0.084,6.277-0.084,12.723,0,19v10.461c0.084,3.098-1.674,4.521-4.688,4.521c-2.595,0-4.521-1.256-4.521-3.935V47.449
		C162.486,44.354,164.745,43.264,166.754,43.264z"/>
	<path fill="#00A79D" d="M183.41,21.504c3.348,0,4.687,1.674,4.687,5.19c-0.25,13.473-0.418,28.206-0.418,40.928
		c0,3.684,0.252,7.28,0.334,10.629c-0.082,2.679-1.172,3.935-4.269,4.186c-3.097,0.25-5.104-1.424-5.19-6.445
		c-0.418-10.797-0.08-35.823,0-50.05C178.64,22.927,180.729,21.504,183.41,21.504z"/>
	<path fill="#00A79D" d="M219.396,45.023c1.424,0.669,2.597,1.59,2.597,3.264c0,2.344-1.086,3.934-3.599,3.934
		c-2.429,0-5.356-1.926-10.129-1.926c-3.848,0-7.113,1.841-7.113,4.687c0,3.099,3.768,3.351,7.951,3.935
		c8.035,1.09,14.146,3.601,14.146,11.299c0,7.869-6.192,12.389-15.899,12.389c-7.369,0-14.9-2.51-14.9-5.439
		c0-2.344,0.921-4.519,3.6-4.519c3.096,0,6.277,2.427,12.135,2.427c3.687,0,6.695-1.591,6.695-4.605c0-3.18-2.93-4.018-8.117-4.77
		c-6.697-0.922-13.979-2.68-13.979-10.215c0-7.363,7.535-12.386,15.398-12.386C212.953,43.097,216.888,43.851,219.396,45.023z"/>
	<path fill="#00A79D" d="M250.362,43.433c10.716,1.59,15.484,10.713,15.484,19.417c0,11.468-8.703,19.835-20.338,19.835
		c-10.129,0-18.998-7.532-18.998-18.664c0-12.471,8.117-20.925,21.342-21.092C248.772,42.93,249.61,43.015,250.362,43.433z
		 M246.181,50.966c-6.359,0.334-10.548,5.104-10.548,13.056c0,6.361,4.938,10.631,9.709,10.631c5.943,0,11.382-4.688,11.382-12.137
		C256.724,56.404,252.959,51.3,246.181,50.966z"/>
	<path fill="#00A79D" d="M269.864,48.621c-0.083-3.431,1.089-5.357,4.687-5.357c2.847,0,3.853,1.339,4.103,4.102l0.168,2.93
		c1.924-4.603,7.281-7.28,12.472-7.28c9.29,0,14.478,6.11,14.478,16.486c0,3.433-0.082,5.189-0.082,10.799v7.197
		c0,3.349-1.758,4.688-4.938,4.688c-2.429,0-4.354-1.256-4.354-4.02c0-4.77,0.254-10.795,0.254-16.069
		c-0.084-5.69-1.256-11.046-7.616-11.046c-8.705-0.083-10.128,6.444-10.128,14.227l0.083,13.143c0,3.012-2.513,3.934-4.603,3.934
		c-2.596,0-4.604-0.922-4.604-4.018c0-5.021,0.25-10.043,0.166-22.349L269.864,48.621z"/>
</g>
</svg>
