<?xml version="1.0" encoding="utf-8"?>
<!-- Generator: Adobe Illustrator 18.1.1, SVG Export Plug-In . SVG Version: 6.00 Build 0)  -->
<!DOCTYPE svg PUBLIC "-//W3C//DTD SVG 1.1//EN" "http://www.w3.org/Graphics/SVG/1.1/DTD/svg11.dtd">
<svg version="1.1" id="Layer_1" xmlns="http://www.w3.org/2000/svg" xmlns:xlink="http://www.w3.org/1999/xlink" x="0px" y="0px"
	 width="62.7px" height="65.3px" viewBox="-448 248.7 62.7 65.3" enable-background="new -448 248.7 62.7 65.3"
	 xml:space="preserve">
<path fill="#19BB9B" d="M-416.7,251.8c-16.5,0-29.9,13.4-29.9,29.9c0,11.3,6.3,21.1,15.5,26.2c0-5.5,0-10.9,0-16.4c-2.4,0-4.7,0-7,0
	c0-3.8,0-7.5,0-11.3c2.2,0,4.5,0,7,0c0-2.9,0-5.7,0-8.4c0-1.5,0.1-3.1,0.4-4.6c0.9-4.2,3.5-6.8,7.6-7.9c5.2-1.5,10.4-0.6,15.7-0.9
	c0,4,0,7.7,0,11.6c-1.5,0-2.9,0-4.3,0c-0.8,0-1.7,0-2.5,0c-2.7,0-3.4,0.7-3.4,3.5c0,2.2,0,4.4,0,6.7c3.4,0,6.8,0,10.3,0
	c-0.3,3.8-0.7,7.4-1,11.2c-3.1,0-6.1,0-9.3,0c0,6.8,0,13.6,0,20.4c0.3,0,0.6,0,1,0c16.5,0,29.9-13.4,29.9-29.9
	C-386.9,265.2-400.3,251.8-416.7,251.8z"/>
</svg>
