<?xml version="1.0" encoding="utf-8"?>
<!-- Generator: Adobe Illustrator 16.0.4, SVG Export Plug-In . SVG Version: 6.00 Build 0)  -->
<!DOCTYPE svg PUBLIC "-//W3C//DTD SVG 1.1//EN" "http://www.w3.org/Graphics/SVG/1.1/DTD/svg11.dtd">
<svg version="1.1" id="Layer_1" xmlns="http://www.w3.org/2000/svg" xmlns:xlink="http://www.w3.org/1999/xlink" x="0px" y="0px"
	 width="62.667px" height="65.314px" viewBox="0 0 62.667 65.314" enable-background="new 0 0 62.667 65.314" xml:space="preserve">
<path fill="#FFFFFF" d="M31.252,3.142c-16.492,0-29.86,13.367-29.86,29.856c0,11.291,6.265,21.112,15.506,26.188
	c0-5.458,0-10.938,0-16.445c-2.402,0-4.653,0-6.991,0c0-3.811,0-7.496,0-11.337c2.241,0,4.526,0,6.954,0
	c0-2.92-0.041-5.688,0.017-8.449c0.033-1.549,0.067-3.13,0.39-4.634c0.888-4.152,3.485-6.784,7.564-7.946
	c5.158-1.469,10.419-0.611,15.701-0.881c0,3.968,0,7.729,0,11.645c-1.498,0-2.921,0-4.343,0c-0.842,0-1.685-0.012-2.524,0.003
	c-2.737,0.043-3.4,0.717-3.408,3.469c-0.007,2.188-0.004,4.374-0.004,6.706c3.44,0,6.824,0,10.324,0
	c-0.334,3.775-0.654,7.397-0.99,11.17c-3.072,0-6.121,0-9.312,0c0,6.819,0,13.59,0,20.354c0.325,0.012,0.649,0.019,0.978,0.019
	c16.487,0,29.856-13.368,29.856-29.86C61.108,16.509,47.739,3.142,31.252,3.142z"/>
</svg>
