<?xml version="1.0" encoding="utf-8"?>
<!-- Generator: Adobe Illustrator 16.0.4, SVG Export Plug-In . SVG Version: 6.00 Build 0)  -->
<!DOCTYPE svg PUBLIC "-//W3C//DTD SVG 1.1//EN" "http://www.w3.org/Graphics/SVG/1.1/DTD/svg11.dtd">
<svg version="1.1" xmlns="http://www.w3.org/2000/svg" xmlns:xlink="http://www.w3.org/1999/xlink" x="0px" y="0px"
	 width="733.463px" height="1416.141px" viewBox="0 0 733.463 1416.141" enable-background="new 0 0 733.463 1416.141"
	 xml:space="preserve">
<g id="Layer_1">
	<g>
		<path fill="none" stroke="#00A79D" stroke-width="7" stroke-miterlimit="10" d="M702.423,1279.237
			c0,59.346-42.795,107.465-95.594,107.465H138.44c-52.795,0-95.594-48.119-95.594-107.465V136.896
			c0-59.35,42.795-107.456,95.594-107.456h468.397c52.789,0,95.584,48.11,95.584,107.456L702.423,1279.237L702.423,1279.237z"/>
		<path fill="none" stroke="#00A79D" stroke-width="7" stroke-miterlimit="10" d="M415.031,1273.836
			c0,23.43-18.985,42.404-42.402,42.404c-23.414,0-42.392-18.978-42.392-42.404c0-23.412,18.979-42.389,42.392-42.389
			C396.04,1231.448,415.031,1250.422,415.031,1273.836z"/>
		<path fill="none" stroke="#00A79D" stroke-width="7" stroke-miterlimit="10" d="M271.474,88.506
			c8.242,0,14.926,6.681,14.926,14.923c0,8.242-6.684,14.922-14.926,14.922c-8.24,0-14.917-6.68-14.917-14.922
			C256.557,95.188,263.234,88.506,271.474,88.506z"/>
		
			<line fill="none" stroke="#00A79D" stroke-width="7" stroke-linecap="round" stroke-miterlimit="10" x1="328.014" y1="103.43" x2="426.957" y2="103.43"/>
	</g>
</g>
<g id="Layer_2">
	<path fill="#00A69C" d="M214.84,468.032c-4.878,1.889-10.648,2.711-17.03,2.711c-6.125,0-8.047,0.121-8.047-2.763V413.35
		c2.762-0.242,9.006-0.242,10.687-0.242c2.897,0,5.742,0.275,8.463,0.827l9.434-10.117c-4.882-1.629-10.204-2.54-15.736-2.716
		c-1.68-0.119-12.127,0-14.169,0c-6.243,0-12.247,1.441-12.247,8.285l0.359,36.623l-0.24,28.937c0,4.204,2.642,7.325,6.363,7.566
		c5.285,0.48,11.168,0.36,15.971,0.36c10.174-0.09,19.085-1.759,26.271-5.437L214.84,468.032z"/>
	<g>
		<g>
			<g>
				<path fill="#00314D" d="M201.553,456.833c-1.139,0-2.272-0.484-3.068-1.42c-1.438-1.694-1.231-4.232,0.463-5.669
					c0.019-0.016,3.928-3.487,3.475-7.794c-0.446-4.25-4.908-6.667-4.953-6.691c-1.978-1.013-2.746-3.43-1.734-5.408
					c1.012-1.977,3.448-2.754,5.426-1.741c0.34,0.176,8.355,4.372,9.262,12.998c0.902,8.574-5.976,14.52-6.271,14.77
					C203.399,456.517,202.474,456.833,201.553,456.833z"/>
			</g>
			<g>
				<path fill="#00314D" d="M213.033,464.565c-1.313,0-2.623-0.518-3.597-1.547c-1.878-1.986-1.792-5.119,0.194-7
					c0.048-0.043,6.66-6.56,5.752-15.179c-0.897-8.549-8.584-13.238-8.66-13.284c-2.364-1.374-3.168-4.402-1.794-6.768
					c1.374-2.364,4.403-3.167,6.767-1.792c0.496,0.285,12.103,7.178,13.535,20.809c1.426,13.564-8.376,23.012-8.795,23.408
					C215.479,464.118,214.255,464.565,213.033,464.565z"/>
			</g>
			<g>
				<path fill="#00314D" d="M225.99,473.171c-1.641,0-3.28-0.648-4.497-1.935c-2.351-2.482-2.242-6.401,0.242-8.749
					c0.078-0.076,10.019-9.833,8.65-22.84c-1.359-12.918-12.964-19.966-13.081-20.036c-2.955-1.717-3.945-5.497-2.228-8.452
					c1.717-2.955,5.52-3.95,8.475-2.233c0.698,0.405,17.115,10.152,19.144,29.426c2.018,19.19-11.862,32.566-12.455,33.127
					C229.045,472.609,227.517,473.171,225.99,473.171z"/>
			</g>
		</g>
	</g>
	<g>
		<g>
			<path fill="#00A69C" d="M275.137,469.425c4.441,0,8.644-1.441,11.646-3.243c1.44-0.842,2.884-1.561,4.683-1.561
				c2.881,0,5.524,3,5.524,6.243c0,2.282-1.442,4.083-3.603,5.522c-4.443,2.884-10.087,4.804-19.333,4.804
				c-14.889,0-26.657-11.887-26.895-26.416c0-16.812,12.005-30.378,27.616-30.378c14.048,0,24.255,11.046,24.255,22.092
				c0,6.245-0.961,9.367-9.365,9.487c-6.726,0.24-14.89,0.12-29.18,0.24C260.968,463.42,266.971,469.425,275.137,469.425z
				 M260.607,447.811c6.243,0,19.451-0.119,24.495-0.481c0.839-0.118,1.44-0.48,1.44-1.081c0-6.603-5.524-11.166-11.527-11.166
				C266.971,435.083,261.328,441.448,260.607,447.811z"/>
			<path fill="#00A69C" d="M307.192,432.442c-0.12-4.923,1.561-7.686,6.725-7.686c4.082,0,5.523,1.921,5.883,5.885l0.241,4.202
				c2.762-6.603,10.445-10.445,17.891-10.445c13.327,0,20.772,8.764,20.772,23.653c0,4.925-0.121,7.445-0.121,15.491v10.327
				c0,4.803-2.519,6.724-7.081,6.724c-3.483,0-6.245-1.802-6.245-5.764c0-6.844,0.359-15.49,0.359-23.054
				c-0.12-8.165-1.8-15.849-10.928-15.849c-12.487-0.121-14.528,9.244-14.528,20.41l0.12,18.854c0,4.322-3.603,5.642-6.604,5.642
				c-3.721,0-6.604-1.32-6.604-5.763c0-7.205,0.361-14.409,0.241-32.061L307.192,432.442z"/>
			<path fill="#00A69C" d="M365.907,401.463c0.721-4.803,4.803-7.085,8.644-7.085c5.405,0,8.168,3.604,8.168,8.165
				c0,5.523-4.082,7.925-9.126,7.925C368.547,410.468,365.305,406.506,365.907,401.463z M373.831,424.756
				c3.964,0,6.845,1.442,6.845,7.327c0.119,9.005-0.117,18.25,0,27.255v15.009c0.119,4.443-2.403,6.484-6.724,6.484
				c-3.722,0-6.484-1.8-6.484-5.642v-44.429C367.706,426.318,370.951,424.756,373.831,424.756z"/>
			<path fill="#00A69C" d="M397.728,393.538c4.8,0,6.724,2.401,6.724,7.444c-0.361,19.333-0.601,40.466-0.601,58.716
				c0,5.284,0.361,10.447,0.479,15.25c-0.118,3.842-1.681,5.644-6.123,6.004c-4.444,0.36-7.327-2.041-7.445-9.246
				c-0.601-15.489-0.12-51.391,0-71.804C390.88,395.579,393.884,393.538,397.728,393.538z"/>
			<path fill="#00A69C" d="M449.357,427.279c2.041,0.961,3.72,2.282,3.72,4.682c0,3.363-1.561,5.644-5.16,5.644
				c-3.482,0-7.685-2.762-14.529-2.762c-5.526,0-10.207,2.641-10.207,6.725c0,4.443,5.404,4.803,11.406,5.644
				c11.527,1.56,20.291,5.163,20.291,16.208c0,11.287-8.884,17.771-22.812,17.771c-10.566,0-21.375-3.602-21.375-7.806
				c0-3.361,1.321-6.482,5.164-6.482c4.445,0,9.007,3.481,17.412,3.481c5.282,0,9.605-2.282,9.605-6.606
				c0-4.561-4.202-5.763-11.647-6.843c-9.605-1.32-20.055-3.842-20.055-14.649c0-10.565,10.809-17.771,22.097-17.771
				C440.11,424.517,445.755,425.598,449.357,427.279z"/>
			<path fill="#00A69C" d="M493.783,424.996c15.367,2.283,22.212,15.37,22.212,27.859c0,16.45-12.489,28.457-29.178,28.457
				c-14.528,0-27.258-10.806-27.258-26.777c0-17.891,11.646-30.019,30.619-30.259C491.5,424.276,492.7,424.398,493.783,424.996z
				 M487.777,435.805c-9.128,0.479-15.128,7.323-15.128,18.73c0,9.126,7.083,15.25,13.927,15.25c8.525,0,16.332-6.724,16.332-17.41
				C502.908,443.61,497.504,436.284,487.777,435.805z"/>
			<path fill="#00A69C" d="M521.755,432.442c-0.118-4.923,1.562-7.686,6.726-7.686c4.083,0,5.523,1.921,5.883,5.885l0.241,4.202
				c2.762-6.603,10.447-10.445,17.89-10.445c13.33,0,20.772,8.764,20.772,23.653c0,4.925-0.12,7.445-0.12,15.491v10.327
				c0,4.803-2.522,6.724-7.081,6.724c-3.483,0-6.245-1.802-6.245-5.764c0-6.844,0.359-15.49,0.359-23.054
				c-0.118-8.165-1.8-15.849-10.926-15.849c-12.489-0.121-14.53,9.244-14.53,20.41l0.12,18.854c0,4.322-3.6,5.642-6.604,5.642
				c-3.723,0-6.604-1.32-6.604-5.763c0-7.205,0.359-14.409,0.241-32.061L521.755,432.442z"/>
		</g>
	</g>
	<g>
		<defs>
			<rect id="SVGID_1_" x="119.788" y="232.931" width="509.866" height="906.883"/>
		</defs>
		<clipPath id="SVGID_2_">
			<use xlink:href="#SVGID_1_"  overflow="visible"/>
		</clipPath>
		<g clip-path="url(#SVGID_2_)">
			<defs>
				<rect id="SVGID_3_" x="119.788" y="232.931" width="509.866" height="906.883"/>
			</defs>
			<clipPath id="SVGID_4_">
				<use xlink:href="#SVGID_3_"  overflow="visible"/>
			</clipPath>
			<path clip-path="url(#SVGID_4_)" fill="none" stroke="#00A69C" stroke-width="5" stroke-miterlimit="10" d="M515.661,660.147
				H232.854c-5.631,0-10.198-4.565-10.198-10.196v-27.393c0-5.632,4.566-10.197,10.198-10.197h282.807
				c5.63,0,10.197,4.565,10.197,10.197v27.393C525.858,655.583,521.291,660.147,515.661,660.147z"/>
			<g opacity="0.35" clip-path="url(#SVGID_4_)">
				<g>
					<defs>
						<rect id="SVGID_5_" x="293.451" y="623.922" width="161.615" height="24.667"/>
					</defs>
					<clipPath id="SVGID_6_">
						<use xlink:href="#SVGID_5_"  overflow="visible"/>
					</clipPath>
					<g clip-path="url(#SVGID_6_)">
						<text transform="matrix(1 0 0 1 293.4492 642.9785)" fill="#00A69C" font-family="'Montserrat-Regular'" font-size="22.4341">EMPLOYEE ID</text>
					</g>
				</g>
			</g>
			<path clip-path="url(#SVGID_4_)" fill="none" stroke="#00A69C" stroke-width="5" stroke-miterlimit="10" d="M515.661,741.926
				H232.854c-5.631,0-10.198-4.566-10.198-10.198v-27.39c0-5.634,4.566-10.198,10.198-10.198h282.807
				c5.63,0,10.197,4.564,10.197,10.198v27.39C525.858,737.359,521.291,741.926,515.661,741.926z"/>
			<g opacity="0.35" clip-path="url(#SVGID_4_)">
				<g>
					<defs>
						<rect id="SVGID_7_" x="304.723" y="705.699" width="139.069" height="24.666"/>
					</defs>
					<clipPath id="SVGID_8_">
						<use xlink:href="#SVGID_7_"  overflow="visible"/>
					</clipPath>
					<g clip-path="url(#SVGID_8_)">
						<text transform="matrix(1 0 0 1 304.7227 724.7559)"><tspan x="0" y="0" fill="#00A69C" font-family="'Montserrat-Regular'" font-size="22.4341">P</tspan><tspan x="14.716" y="0" fill="#00A69C" font-family="'Montserrat-Regular'" font-size="22.4341">ASS</tspan><tspan x="60.526" y="0" fill="#00A69C" font-family="'Montserrat-Regular'" font-size="22.4341">W</tspan><tspan x="84.038" y="0" fill="#00A69C" font-family="'Montserrat-Regular'" font-size="22.4341">O</tspan><tspan x="102.658" y="0" fill="#00A69C" font-family="'Montserrat-Regular'" font-size="22.4341">R</tspan><tspan x="119.304" y="0" fill="#00A69C" font-family="'Montserrat-Regular'" font-size="22.4341">D</tspan></text>
					</g>
				</g>
			</g>
			<path clip-path="url(#SVGID_4_)" fill="#00A69C" d="M432.831,823.703H315.685c-5.632,0-10.198-4.566-10.198-10.197v-27.392
				c0-5.632,4.566-10.196,10.198-10.196h117.146c5.632,0,10.197,4.564,10.197,10.196v27.392
				C443.028,819.137,438.463,823.703,432.831,823.703"/>
		</g>
		<g clip-path="url(#SVGID_2_)">
			<text transform="matrix(1 0 0 1 332.9219 806.5332)"><tspan x="0" y="0" fill="#FFFFFF" font-family="'Montserrat-Regular'" font-size="22.4341">L</tspan><tspan x="11.98" y="0" fill="#FFFFFF" font-family="'Montserrat-Regular'" font-size="22.4341">O</tspan><tspan x="30.578" y="0" fill="#FFFFFF" font-family="'Montserrat-Regular'" font-size="22.4341">G </tspan><tspan x="54.065" y="0" fill="#FFFFFF" font-family="'Montserrat-Regular'" font-size="22.4341">I</tspan><tspan x="61.267" y="0" fill="#FFFFFF" font-family="'Montserrat-Regular'" font-size="22.4341">N</tspan></text>
		</g>
		<g clip-path="url(#SVGID_2_)">
			<defs>
				<rect id="SVGID_9_" x="119.788" y="232.931" width="509.866" height="906.883"/>
			</defs>
			<clipPath id="SVGID_10_">
				<use xlink:href="#SVGID_9_"  overflow="visible"/>
			</clipPath>
		</g>
		<g clip-path="url(#SVGID_2_)">
			<text transform="matrix(1 0 0 1 549.835 253.7681)"><tspan x="0" y="0" font-family="'HelveticaNeue'" font-size="16.3157">2</tspan><tspan x="8.762" y="0" font-family="'HelveticaNeue'" font-size="16.3157">2</tspan><tspan x="17.507" y="0" font-family="'HelveticaNeue'" font-size="16.3157">%</tspan></text>
		</g>
		<g clip-path="url(#SVGID_2_)">
			<defs>
				<rect id="SVGID_11_" x="119.788" y="232.931" width="509.866" height="906.883"/>
			</defs>
			<clipPath id="SVGID_12_">
				<use xlink:href="#SVGID_11_"  overflow="visible"/>
			</clipPath>
			<path clip-path="url(#SVGID_12_)" d="M616.956,241.985c0.749,0,1.36,0.61,1.36,1.36v8.838c0,0.75-0.611,1.36-1.36,1.36h-26.514
				c-0.75,0-1.36-0.61-1.36-1.36v-8.838c0-0.75,0.61-1.36,1.36-1.36H616.956 M616.956,241.306h-26.514
				c-1.127,0-2.038,0.914-2.038,2.04v8.838c0,1.127,0.911,2.04,2.038,2.04h26.514c1.127,0,2.04-0.913,2.04-2.04v-8.838
				C618.996,242.22,618.083,241.306,616.956,241.306"/>
			<path clip-path="url(#SVGID_12_)" d="M591.123,242.665c-0.752,0-1.36,0.609-1.36,1.359v7.479c0,0.751,0.608,1.36,1.36,1.36h4.757
				v-10.198H591.123z"/>
			<path clip-path="url(#SVGID_12_)" d="M619.674,245.385v4.759c1.314,0,2.041-1.065,2.041-2.38
				C621.715,246.45,620.988,245.385,619.674,245.385"/>
			<g opacity="0.4" clip-path="url(#SVGID_12_)">
				<g>
					<defs>
						<rect id="SVGID_13_" x="529.83" y="238.58" width="10.231" height="18.354"/>
					</defs>
					<clipPath id="SVGID_14_">
						<use xlink:href="#SVGID_13_"  overflow="visible"/>
					</clipPath>
					<path clip-path="url(#SVGID_14_)" d="M536.252,247.759l3.755-3.841l-5.216-5.338h-0.138v7.543l-3.886-3.979l-0.938,0.959
						l4.551,4.655l-4.551,4.656l0.938,0.958l3.886-3.977v7.542h0.248l5.16-5.282L536.252,247.759z M536.057,241.987l2.074,1.931
						l-2.074,2.147V241.987z M536.057,249.463l2.133,2.194l-2.133,1.886V249.463z"/>
				</g>
			</g>
		</g>
		<g clip-path="url(#SVGID_2_)">
			<text transform="matrix(1 0 0 1 343.5439 253.7681)" font-family="'HelveticaNeue-Medium'" font-size="16.3157">4</text>
		</g>
		<g clip-path="url(#SVGID_2_)">
			<defs>
				<rect id="SVGID_15_" x="119.788" y="232.931" width="509.866" height="906.883"/>
			</defs>
			<clipPath id="SVGID_16_">
				<use xlink:href="#SVGID_15_"  overflow="visible"/>
			</clipPath>
			<g clip-path="url(#SVGID_16_)">
				<text transform="matrix(1 0 0 1 352.2891 252.4092)" font-family="'Avenir-Medium'" font-size="17.6754">:</text>
			</g>
		</g>
		<g clip-path="url(#SVGID_2_)">
			<text transform="matrix(1 0 0 1 356.8496 253.7681)"><tspan x="0" y="0" font-family="'HelveticaNeue-Medium'" font-size="16.3157">2</tspan><tspan x="8.745" y="0" font-family="'HelveticaNeue-Medium'" font-size="16.3157">1</tspan><tspan x="17.507" y="0" font-family="'HelveticaNeue-Medium'" font-size="16.3157"> </tspan><tspan x="21.716" y="0" font-family="'HelveticaNeue-Medium'" font-size="16.3157">P</tspan><tspan x="32.288" y="0" font-family="'HelveticaNeue-Medium'" font-size="16.3157">M</tspan></text>
		</g>
		<g clip-path="url(#SVGID_2_)">
			<defs>
				<rect id="SVGID_17_" x="119.788" y="232.931" width="509.866" height="906.883"/>
			</defs>
			<clipPath id="SVGID_18_">
				<use xlink:href="#SVGID_17_"  overflow="visible"/>
			</clipPath>
			<path clip-path="url(#SVGID_18_)" d="M248.128,241.249c-3.126,0-5.974,1.339-8.155,3.255l1.278,1.435
				c1.841-1.611,4.243-2.593,6.877-2.593c2.639,0,5.043,0.986,6.887,2.601l1.279-1.431
				C254.112,242.594,251.26,241.249,248.128,241.249 M242.642,247.498l1.352,1.518c1.114-0.954,2.555-1.534,4.135-1.534
				c1.582,0,3.026,0.582,4.141,1.54l1.354-1.517c-1.473-1.282-3.391-2.12-5.495-2.12
				C246.029,245.385,244.114,246.221,242.642,247.498 M245.346,250.535l2.783,3.122l2.786-3.119
				c-0.754-0.634-1.725-1.074-2.786-1.074C247.07,249.463,246.101,249.903,245.346,250.535"/>
		</g>
		<g clip-path="url(#SVGID_2_)">
			<text transform="matrix(1 0 0 1 179.5078 253.5317)"><tspan x="0" y="0" font-family="'HelveticaNeue'" font-size="15.6359">V</tspan><tspan x="9.851" y="0" font-family="'HelveticaNeue'" font-size="15.6359">I</tspan><tspan x="14.213" y="0" font-family="'HelveticaNeue'" font-size="15.6359">R</tspan><tspan x="25.22" y="0" font-family="'HelveticaNeue'" font-size="15.6359">GI</tspan><tspan x="41.763" y="0" font-family="'HelveticaNeue'" font-size="15.6359">N</tspan></text>
		</g>
		<g clip-path="url(#SVGID_2_)">
			<defs>
				<rect id="SVGID_19_" x="119.788" y="232.931" width="509.866" height="906.883"/>
			</defs>
			<clipPath id="SVGID_20_">
				<use xlink:href="#SVGID_19_"  overflow="visible"/>
			</clipPath>
			<path clip-path="url(#SVGID_20_)" d="M169.972,244.706c1.688,0,3.06,1.372,3.06,3.059c0,1.687-1.372,3.059-3.06,3.059
				c-1.687,0-3.059-1.372-3.059-3.059C166.913,246.078,168.285,244.706,169.972,244.706 M169.972,244.025
				c-2.064,0-3.738,1.674-3.738,3.739s1.674,3.738,3.738,3.738c2.065,0,3.739-1.673,3.739-3.738S172.037,244.025,169.972,244.025"/>
			<path clip-path="url(#SVGID_20_)" d="M160.455,244.706c1.686,0,3.059,1.372,3.059,3.059c0,1.687-1.374,3.059-3.059,3.059
				c-1.688,0-3.06-1.372-3.06-3.059C157.395,246.078,158.767,244.706,160.455,244.706 M160.455,244.025
				c-2.065,0-3.74,1.674-3.74,3.739s1.674,3.738,3.74,3.738c2.065,0,3.739-1.673,3.739-3.738S162.52,244.025,160.455,244.025"/>
			<path clip-path="url(#SVGID_20_)" d="M150.937,244.025c-2.065,0-3.739,1.674-3.739,3.739s1.674,3.738,3.739,3.738
				c2.064,0,3.739-1.673,3.739-3.738S153.001,244.025,150.937,244.025"/>
			<path clip-path="url(#SVGID_20_)" d="M141.419,244.025c-2.065,0-3.739,1.674-3.739,3.739s1.674,3.738,3.739,3.738
				c2.064,0,3.739-1.673,3.739-3.738S143.484,244.025,141.419,244.025"/>
			<path clip-path="url(#SVGID_20_)" d="M131.902,244.025c-2.065,0-3.74,1.674-3.74,3.739s1.674,3.738,3.74,3.738
				c2.065,0,3.739-1.673,3.739-3.738S133.967,244.025,131.902,244.025"/>
		</g>
	</g>
	
		<rect x="79.231" y="216.327" fill="none" stroke="#00A79D" stroke-width="7" stroke-miterlimit="10" width="585" height="962.311"/>
</g>
</svg>
