<?xml version="1.0" encoding="utf-8"?>
<!-- Generator: Adobe Illustrator 16.0.4, SVG Export Plug-In . SVG Version: 6.00 Build 0)  -->
<!DOCTYPE svg PUBLIC "-//W3C//DTD SVG 1.1//EN" "http://www.w3.org/Graphics/SVG/1.1/DTD/svg11.dtd">
<svg version="1.1" id="Layer_1" xmlns="http://www.w3.org/2000/svg" xmlns:xlink="http://www.w3.org/1999/xlink" x="0px" y="0px"
	 width="463.75px" height="310.25px" viewBox="0 0 463.75 310.25" enable-background="new 0 0 463.75 310.25" xml:space="preserve">
<rect x="163.748" y="162.002" fill="#00A79D" stroke="#FFFFFF" stroke-width="1.5" stroke-miterlimit="10" width="42" height="58.059"/>
<path fill="#00A79D" stroke="#FFFFFF" stroke-width="1.5" stroke-miterlimit="10" d="M325.391,193.986c0,4.971-4.027,9-9,9H53.105
	c-4.971,0-9-4.029-9-9V45.35c0-4.971,4.029-9,9-9H316.39c4.973,0,9,4.029,9,9L325.391,193.986L325.391,193.986z"/>
<rect x="55.373" y="50.223" fill="#00A79D" stroke="#FFFFFF" stroke-width="1.5" stroke-linejoin="round" stroke-miterlimit="10" width="258.75" height="138.029"/>
<g>
	<polygon fill="#00A79D" stroke="#FFFFFF" stroke-width="1.5" stroke-linejoin="round" stroke-miterlimit="10" points="
		250.613,225.889 118.631,225.889 128.192,215.368 239.926,215.368 	"/>
</g>
<path fill="#00A79D" stroke="#FFFFFF" stroke-width="1.5" stroke-miterlimit="10" d="M237.557,239.706c0,4.971,4.028,9,9,9h145.681
	c4.971,0,9-4.029,9-9V134.84c0-4.971-4.029-9-9-9H246.557c-4.972,0-9,4.03-9,9V239.706z"/>
<rect x="248.709" y="134.632" fill="#00A79D" stroke="#FFFFFF" stroke-width="1.5" stroke-linejoin="round" stroke-miterlimit="10" width="141.373" height="105.281"/>
<g>
	<path fill="#00A79D" stroke="#FFFFFF" stroke-width="1.5" stroke-miterlimit="10" d="M419.644,273.134c0,3.866-3.134,7-7,7h-36.088
		c-3.864,0-7-3.134-7-7v-84.258c0-3.866,3.136-7,7-7h36.088c3.866,0,7,3.134,7,7V273.134z"/>
	
		<rect x="374.466" y="195.75" fill="#00A79D" stroke="#FFFFFF" stroke-width="1.5" stroke-linejoin="round" stroke-miterlimit="10" width="40.666" height="65.352"/>
	<circle fill="#00A79D" stroke="#FFFFFF" stroke-width="1.5" stroke-miterlimit="10" cx="394.823" cy="269.938" r="5.5"/>
</g>
<line fill="none" stroke="#FFFFFF" stroke-width="1.5" stroke-miterlimit="10" x1="55.373" y1="188.252" x2="313.438" y2="50.562"/>
<line fill="none" stroke="#FFFFFF" stroke-width="1.5" stroke-miterlimit="10" x1="248.709" y1="239.913" x2="389.323" y2="134.406"/>
<line fill="none" stroke="#FFFFFF" stroke-width="1.5" stroke-miterlimit="10" x1="415.132" y1="195.75" x2="374.466" y2="261.102"/>
<line fill="none" stroke="#FFFFFF" stroke-width="1.5" stroke-linecap="round" stroke-miterlimit="10" x1="388.25" y1="189.625" x2="401" y2="189.625"/>
</svg>
