<?xml version="1.0" encoding="utf-8"?>
<!-- Generator: Adobe Illustrator 16.0.4, SVG Export Plug-In . SVG Version: 6.00 Build 0)  -->
<!DOCTYPE svg PUBLIC "-//W3C//DTD SVG 1.1//EN" "http://www.w3.org/Graphics/SVG/1.1/DTD/svg11.dtd">
<svg version="1.1" id="Layer_1" xmlns="http://www.w3.org/2000/svg" xmlns:xlink="http://www.w3.org/1999/xlink" x="0px" y="0px"
	 width="62.667px" height="65.314px" viewBox="0 0 62.667 65.314" enable-background="new 0 0 62.667 65.314" xml:space="preserve">
<path fill="#FFFFFF" d="M31.334,2.221c-16.681,0-30.206,13.521-30.206,30.204c0,16.686,13.522,30.204,30.206,30.204
	c16.68,0,30.205-13.52,30.205-30.204C61.539,15.743,48.014,2.221,31.334,2.221z M50.646,21.39c-0.471,0.516-0.98,0.999-1.467,1.499
	c-0.602,0.617-0.822,1.341-0.896,2.222c-0.883,10.48-5.471,18.638-15.414,22.877c-7.43,3.17-14.895,2.442-22.027-1.377
	c-0.188-0.102-0.354-0.236-0.554-0.517c4.331-0.099,8.444-0.84,11.948-3.443c-1.377-0.657-2.816-1.238-4.148-2.012
	c-1.363-0.787-2.454-1.913-3.094-3.399c-0.352-0.822-0.226-0.999,0.674-1.017c0.727-0.012,1.453,0,2.271-0.105
	c-3.814-1.666-6.155-4.389-6.517-8.792c1.113,0.312,2.142,0.597,3.171,0.883c0.072-0.074,0.144-0.147,0.215-0.227
	c-1.298-1.624-2.669-3.188-3.027-5.332c-0.359-2.154,0.007-4.155,0.906-6.289c4.827,5.409,10.627,8.797,17.983,9.324
	c0-0.522,0.025-1.045-0.004-1.566c-0.301-5.457,4.41-9.816,9.832-9.18c1.828,0.213,3.301,1.082,4.722,2.095
	c0.575,0.414,1.094,0.516,1.745,0.263c1.41-0.547,2.836-1.057,4.254-1.581c0.078,0.055,0.156,0.112,0.232,0.17
	c-0.959,1.355-1.918,2.708-2.877,4.063c0.029,0.088,0.057,0.176,0.082,0.265c1.195-0.339,2.389-0.677,3.58-1.016
	c0.049,0.078,0.096,0.151,0.145,0.226C51.805,20.076,51.24,20.743,50.646,21.39z"/>
</svg>
