<?xml version="1.0" encoding="utf-8"?>
<!-- Generator: Adobe Illustrator 18.1.1, SVG Export Plug-In . SVG Version: 6.00 Build 0)  -->
<!DOCTYPE svg PUBLIC "-//W3C//DTD SVG 1.1//EN" "http://www.w3.org/Graphics/SVG/1.1/DTD/svg11.dtd">
<svg version="1.1" id="Layer_1" xmlns="http://www.w3.org/2000/svg" xmlns:xlink="http://www.w3.org/1999/xlink" x="0px" y="0px"
	 width="62.7px" height="65.3px" viewBox="-448 248.7 62.7 65.3" enable-background="new -448 248.7 62.7 65.3"
	 xml:space="preserve">
<path fill="#19BB9B" d="M-416.7,250.9c-16.7,0-30.2,13.5-30.2,30.2c0,16.7,13.5,30.2,30.2,30.2c16.7,0,30.2-13.5,30.2-30.2
	C-386.5,264.4-400,250.9-416.7,250.9z M-397.4,270.1c-0.5,0.5-1,1-1.5,1.5c-0.6,0.6-0.8,1.3-0.9,2.2c-0.9,10.5-5.5,18.6-15.4,22.9
	c-7.4,3.2-14.9,2.4-22-1.4c-0.2-0.1-0.4-0.2-0.6-0.5c4.3-0.1,8.4-0.8,11.9-3.4c-1.4-0.7-2.8-1.2-4.1-2c-1.4-0.8-2.5-1.9-3.1-3.4
	c-0.4-0.8-0.2-1,0.7-1c0.7,0,1.5,0,2.3-0.1c-3.8-1.7-6.2-4.4-6.5-8.8c1.1,0.3,2.1,0.6,3.2,0.9c0.1-0.1,0.1-0.1,0.2-0.2
	c-1.3-1.6-2.7-3.2-3-5.3c-0.4-2.2,0-4.2,0.9-6.3c4.8,5.4,10.6,8.8,18,9.3c0-0.5,0-1,0-1.6c-0.3-5.5,4.4-9.8,9.8-9.2
	c1.8,0.2,3.3,1.1,4.7,2.1c0.6,0.4,1.1,0.5,1.7,0.3c1.4-0.5,2.8-1.1,4.3-1.6c0.1,0.1,0.2,0.1,0.2,0.2c-1,1.4-1.9,2.7-2.9,4.1
	c0,0.1,0.1,0.2,0.1,0.3c1.2-0.3,2.4-0.7,3.6-1c0,0.1,0.1,0.2,0.1,0.2C-396.2,268.8-396.8,269.4-397.4,270.1z"/>
</svg>
